<svg xmlns="http://www.w3.org/2000/svg" width="2040" height="3378" viewBox="0 0 2040 3378">
<defs><marker id="arrow" markerWidth="10" markerHeight="8" refX="9" refY="4" orient="auto"><path d="M0,0 L10,4 L0,8 z" fill="#64748b"/></marker></defs>
<rect width="100%" height="100%" fill="#ffffff"/>
<text x="28" y="34" font-family="Helvetica" font-size="22" font-weight="700">Official Pizza bounded LTS</text>
<text x="28" y="58" font-family="Helvetica" font-size="13" fill="#475569">Showing 120 of 200 states and transitions between shown states.</text>
<line x1="90" y1="1650" x2="238" y2="1650" stroke="#94a3b8" stroke-width="1.2" marker-end="url(#arrow)"/>
<text x="165" y="1645" font-family="Helvetica" font-size="10" fill="#334155">hungry_for_pizza</text>
<line x1="280" y1="1650" x2="428" y2="1650" stroke="#94a3b8" stroke-width="1.2" marker-end="url(#arrow)"/>
<text x="355" y="1645" font-family="Helvetica" font-size="10" fill="#334155">select_a_pizza</text>
<line x1="470" y1="1650" x2="618" y2="1650" stroke="#94a3b8" stroke-width="1.2" marker-end="url(#arrow)"/>
<text x="545" y="1645" font-family="Helvetica" font-size="10" fill="#334155">order_a_pizza</text>
<line x1="660" y1="1650" x2="808" y2="1572" stroke="#94a3b8" stroke-width="1.2" marker-end="url(#arrow)"/>
<text x="735" y="1606" font-family="Helvetica" font-size="10" fill="#334155">order_received</text>
<line x1="660" y1="1650" x2="808" y2="1650" stroke="#94a3b8" stroke-width="1.2" marker-end="url(#arrow)"/>
<text x="735" y="1645" font-family="Helvetica" font-size="10" fill="#334155">choose_6_424</text>
<line x1="660" y1="1650" x2="808" y2="1728" stroke="#94a3b8" stroke-width="1.2" marker-end="url(#arrow)"/>
<text x="735" y="1684" font-family="Helvetica" font-size="10" fill="#334155">choose_6_422</text>
<line x1="850" y1="1572" x2="998" y2="1455" stroke="#94a3b8" stroke-width="1.2" marker-end="url(#arrow)"/>
<text x="925" y="1508" font-family="Helvetica" font-size="10" fill="#334155">parallel_gateway_6_652</text>
<line x1="850" y1="1572" x2="998" y2="1533" stroke="#94a3b8" stroke-width="1.2" marker-end="url(#arrow)"/>
<text x="925" y="1547" font-family="Helvetica" font-size="10" fill="#334155">choose_6_424</text>
<line x1="850" y1="1572" x2="998" y2="1611" stroke="#94a3b8" stroke-width="1.2" marker-end="url(#arrow)"/>
<text x="925" y="1586" font-family="Helvetica" font-size="10" fill="#334155">choose_6_422</text>
<line x1="850" y1="1650" x2="998" y2="1689" stroke="#94a3b8" stroke-width="1.2" marker-end="url(#arrow)"/>
<text x="925" y="1664" font-family="Helvetica" font-size="10" fill="#334155">order_received</text>
<line x1="850" y1="1650" x2="998" y2="1767" stroke="#94a3b8" stroke-width="1.2" marker-end="url(#arrow)"/>
<text x="925" y="1703" font-family="Helvetica" font-size="10" fill="#334155">a_60_minutes</text>
<line x1="850" y1="1728" x2="998" y2="1845" stroke="#94a3b8" stroke-width="1.2" marker-end="url(#arrow)"/>
<text x="925" y="1781" font-family="Helvetica" font-size="10" fill="#334155">order_received</text>
<line x1="1040" y1="1455" x2="1188" y2="1260" stroke="#94a3b8" stroke-width="1.2" marker-end="url(#arrow)"/>
<text x="1115" y="1352" font-family="Helvetica" font-size="10" fill="#334155">bake_the_pizza</text>
<line x1="1040" y1="1455" x2="1188" y2="1338" stroke="#94a3b8" stroke-width="1.2" marker-end="url(#arrow)"/>
<text x="1115" y="1391" font-family="Helvetica" font-size="10" fill="#334155">choose_6_424</text>
<line x1="1040" y1="1455" x2="1188" y2="1416" stroke="#94a3b8" stroke-width="1.2" marker-end="url(#arrow)"/>
<text x="1115" y="1430" font-family="Helvetica" font-size="10" fill="#334155">choose_6_422</text>
<line x1="1040" y1="1533" x2="1188" y2="1494" stroke="#94a3b8" stroke-width="1.2" marker-end="url(#arrow)"/>
<text x="1115" y="1508" font-family="Helvetica" font-size="10" fill="#334155">parallel_gateway_6_652</text>
<line x1="1040" y1="1533" x2="1188" y2="1572" stroke="#94a3b8" stroke-width="1.2" marker-end="url(#arrow)"/>
<text x="1115" y="1547" font-family="Helvetica" font-size="10" fill="#334155">a_60_minutes</text>
<line x1="1040" y1="1611" x2="1188" y2="1650" stroke="#94a3b8" stroke-width="1.2" marker-end="url(#arrow)"/>
<text x="1115" y="1625" font-family="Helvetica" font-size="10" fill="#334155">parallel_gateway_6_652</text>
<line x1="1040" y1="1689" x2="1188" y2="1728" stroke="#94a3b8" stroke-width="1.2" marker-end="url(#arrow)"/>
<text x="1115" y="1703" font-family="Helvetica" font-size="10" fill="#334155">parallel_gateway_6_652</text>
<line x1="1040" y1="1689" x2="1188" y2="1806" stroke="#94a3b8" stroke-width="1.2" marker-end="url(#arrow)"/>
<text x="1115" y="1742" font-family="Helvetica" font-size="10" fill="#334155">a_60_minutes</text>
<line x1="1040" y1="1767" x2="1188" y2="1884" stroke="#94a3b8" stroke-width="1.2" marker-end="url(#arrow)"/>
<text x="1115" y="1820" font-family="Helvetica" font-size="10" fill="#334155">order_received</text>
<line x1="1040" y1="1767" x2="1188" y2="1962" stroke="#94a3b8" stroke-width="1.2" marker-end="url(#arrow)"/>
<text x="1115" y="1859" font-family="Helvetica" font-size="10" fill="#334155">ask_for_the_pizza</text>
<line x1="1040" y1="1845" x2="1188" y2="2040" stroke="#94a3b8" stroke-width="1.2" marker-end="url(#arrow)"/>
<text x="1115" y="1937" font-family="Helvetica" font-size="10" fill="#334155">parallel_gateway_6_652</text>
<line x1="1230" y1="1260" x2="1378" y2="870" stroke="#94a3b8" stroke-width="1.2" marker-end="url(#arrow)"/>
<text x="1305" y="1060" font-family="Helvetica" font-size="10" fill="#334155">deliver_the_pizza</text>
<line x1="1230" y1="1260" x2="1378" y2="948" stroke="#94a3b8" stroke-width="1.2" marker-end="url(#arrow)"/>
<text x="1305" y="1099" font-family="Helvetica" font-size="10" fill="#334155">choose_6_424</text>
<line x1="1230" y1="1260" x2="1378" y2="1026" stroke="#94a3b8" stroke-width="1.2" marker-end="url(#arrow)"/>
<text x="1305" y="1138" font-family="Helvetica" font-size="10" fill="#334155">choose_6_422</text>
<line x1="1230" y1="1338" x2="1378" y2="1104" stroke="#94a3b8" stroke-width="1.2" marker-end="url(#arrow)"/>
<text x="1305" y="1216" font-family="Helvetica" font-size="10" fill="#334155">bake_the_pizza</text>
<line x1="1230" y1="1338" x2="1378" y2="1182" stroke="#94a3b8" stroke-width="1.2" marker-end="url(#arrow)"/>
<text x="1305" y="1255" font-family="Helvetica" font-size="10" fill="#334155">a_60_minutes</text>
<line x1="1230" y1="1416" x2="1378" y2="1260" stroke="#94a3b8" stroke-width="1.2" marker-end="url(#arrow)"/>
<text x="1305" y="1333" font-family="Helvetica" font-size="10" fill="#334155">bake_the_pizza</text>
<line x1="1230" y1="1494" x2="1378" y2="1338" stroke="#94a3b8" stroke-width="1.2" marker-end="url(#arrow)"/>
<text x="1305" y="1411" font-family="Helvetica" font-size="10" fill="#334155">bake_the_pizza</text>
<line x1="1230" y1="1494" x2="1378" y2="1416" stroke="#94a3b8" stroke-width="1.2" marker-end="url(#arrow)"/>
<text x="1305" y="1450" font-family="Helvetica" font-size="10" fill="#334155">a_60_minutes</text>
<line x1="1230" y1="1572" x2="1378" y2="1494" stroke="#94a3b8" stroke-width="1.2" marker-end="url(#arrow)"/>
<text x="1305" y="1528" font-family="Helvetica" font-size="10" fill="#334155">parallel_gateway_6_652</text>
<line x1="1230" y1="1572" x2="1378" y2="1572" stroke="#94a3b8" stroke-width="1.2" marker-end="url(#arrow)"/>
<text x="1305" y="1567" font-family="Helvetica" font-size="10" fill="#334155">ask_for_the_pizza</text>
<line x1="1230" y1="1650" x2="1378" y2="1650" stroke="#94a3b8" stroke-width="1.2" marker-end="url(#arrow)"/>
<text x="1305" y="1645" font-family="Helvetica" font-size="10" fill="#334155">bake_the_pizza</text>
<line x1="1230" y1="1728" x2="1378" y2="1728" stroke="#94a3b8" stroke-width="1.2" marker-end="url(#arrow)"/>
<text x="1305" y="1723" font-family="Helvetica" font-size="10" fill="#334155">bake_the_pizza</text>
<line x1="1230" y1="1728" x2="1378" y2="1806" stroke="#94a3b8" stroke-width="1.2" marker-end="url(#arrow)"/>
<text x="1305" y="1762" font-family="Helvetica" font-size="10" fill="#334155">a_60_minutes</text>
<line x1="1230" y1="1806" x2="1378" y2="1884" stroke="#94a3b8" stroke-width="1.2" marker-end="url(#arrow)"/>
<text x="1305" y="1840" font-family="Helvetica" font-size="10" fill="#334155">parallel_gateway_6_652</text>
<line x1="1230" y1="1806" x2="1378" y2="1962" stroke="#94a3b8" stroke-width="1.2" marker-end="url(#arrow)"/>
<text x="1305" y="1879" font-family="Helvetica" font-size="10" fill="#334155">ask_for_the_pizza</text>
<line x1="1230" y1="1884" x2="1378" y2="2040" stroke="#94a3b8" stroke-width="1.2" marker-end="url(#arrow)"/>
<text x="1305" y="1957" font-family="Helvetica" font-size="10" fill="#334155">parallel_gateway_6_652</text>
<line x1="1230" y1="1884" x2="1378" y2="2118" stroke="#94a3b8" stroke-width="1.2" marker-end="url(#arrow)"/>
<text x="1305" y="1996" font-family="Helvetica" font-size="10" fill="#334155">ask_for_the_pizza</text>
<line x1="1230" y1="1962" x2="1378" y2="2196" stroke="#94a3b8" stroke-width="1.2" marker-end="url(#arrow)"/>
<text x="1305" y="2074" font-family="Helvetica" font-size="10" fill="#334155">order_received</text>
<line x1="1230" y1="1962" x2="1378" y2="2274" stroke="#94a3b8" stroke-width="1.2" marker-end="url(#arrow)"/>
<text x="1305" y="2113" font-family="Helvetica" font-size="10" fill="#334155">choose_6_424_2</text>
<line x1="1230" y1="1962" x2="1378" y2="2352" stroke="#94a3b8" stroke-width="1.2" marker-end="url(#arrow)"/>
<text x="1305" y="2152" font-family="Helvetica" font-size="10" fill="#334155">choose_6_422_2</text>
<line x1="1230" y1="2040" x2="1378" y2="2430" stroke="#94a3b8" stroke-width="1.2" marker-end="url(#arrow)"/>
<text x="1305" y="2230" font-family="Helvetica" font-size="10" fill="#334155">bake_the_pizza</text>
<line x1="1420" y1="870" x2="1568" y2="90" stroke="#94a3b8" stroke-width="1.2" marker-end="url(#arrow)"/>
<text x="1495" y="475" font-family="Helvetica" font-size="10" fill="#334155">choose_6_424</text>
<line x1="1420" y1="870" x2="1568" y2="168" stroke="#94a3b8" stroke-width="1.2" marker-end="url(#arrow)"/>
<text x="1495" y="514" font-family="Helvetica" font-size="10" fill="#334155">choose_6_422</text>
<line x1="1420" y1="948" x2="1568" y2="246" stroke="#94a3b8" stroke-width="1.2" marker-end="url(#arrow)"/>
<text x="1495" y="592" font-family="Helvetica" font-size="10" fill="#334155">deliver_the_pizza</text>
<line x1="1420" y1="948" x2="1568" y2="324" stroke="#94a3b8" stroke-width="1.2" marker-end="url(#arrow)"/>
<text x="1495" y="631" font-family="Helvetica" font-size="10" fill="#334155">a_60_minutes</text>
<line x1="1420" y1="1026" x2="1568" y2="402" stroke="#94a3b8" stroke-width="1.2" marker-end="url(#arrow)"/>
<text x="1495" y="709" font-family="Helvetica" font-size="10" fill="#334155">deliver_the_pizza</text>
<line x1="1420" y1="1104" x2="1568" y2="480" stroke="#94a3b8" stroke-width="1.2" marker-end="url(#arrow)"/>
<text x="1495" y="787" font-family="Helvetica" font-size="10" fill="#334155">deliver_the_pizza</text>
<line x1="1420" y1="1104" x2="1568" y2="558" stroke="#94a3b8" stroke-width="1.2" marker-end="url(#arrow)"/>
<text x="1495" y="826" font-family="Helvetica" font-size="10" fill="#334155">a_60_minutes</text>
<line x1="1420" y1="1182" x2="1568" y2="636" stroke="#94a3b8" stroke-width="1.2" marker-end="url(#arrow)"/>
<text x="1495" y="904" font-family="Helvetica" font-size="10" fill="#334155">bake_the_pizza</text>
<line x1="1420" y1="1182" x2="1568" y2="714" stroke="#94a3b8" stroke-width="1.2" marker-end="url(#arrow)"/>
<text x="1495" y="943" font-family="Helvetica" font-size="10" fill="#334155">ask_for_the_pizza</text>
<line x1="1420" y1="1260" x2="1568" y2="792" stroke="#94a3b8" stroke-width="1.2" marker-end="url(#arrow)"/>
<text x="1495" y="1021" font-family="Helvetica" font-size="10" fill="#334155">deliver_the_pizza</text>
<line x1="1420" y1="1338" x2="1568" y2="870" stroke="#94a3b8" stroke-width="1.2" marker-end="url(#arrow)"/>
<text x="1495" y="1099" font-family="Helvetica" font-size="10" fill="#334155">deliver_the_pizza</text>
<line x1="1420" y1="1338" x2="1568" y2="948" stroke="#94a3b8" stroke-width="1.2" marker-end="url(#arrow)"/>
<text x="1495" y="1138" font-family="Helvetica" font-size="10" fill="#334155">a_60_minutes</text>
<line x1="1420" y1="1416" x2="1568" y2="1026" stroke="#94a3b8" stroke-width="1.2" marker-end="url(#arrow)"/>
<text x="1495" y="1216" font-family="Helvetica" font-size="10" fill="#334155">bake_the_pizza</text>
<line x1="1420" y1="1416" x2="1568" y2="1104" stroke="#94a3b8" stroke-width="1.2" marker-end="url(#arrow)"/>
<text x="1495" y="1255" font-family="Helvetica" font-size="10" fill="#334155">ask_for_the_pizza</text>
<line x1="1420" y1="1494" x2="1568" y2="1182" stroke="#94a3b8" stroke-width="1.2" marker-end="url(#arrow)"/>
<text x="1495" y="1333" font-family="Helvetica" font-size="10" fill="#334155">bake_the_pizza</text>
<line x1="1420" y1="1494" x2="1568" y2="1260" stroke="#94a3b8" stroke-width="1.2" marker-end="url(#arrow)"/>
<text x="1495" y="1372" font-family="Helvetica" font-size="10" fill="#334155">ask_for_the_pizza</text>
<line x1="1420" y1="1572" x2="1568" y2="1338" stroke="#94a3b8" stroke-width="1.2" marker-end="url(#arrow)"/>
<text x="1495" y="1450" font-family="Helvetica" font-size="10" fill="#334155">parallel_gateway_6_652</text>
<line x1="1420" y1="1572" x2="1568" y2="1416" stroke="#94a3b8" stroke-width="1.2" marker-end="url(#arrow)"/>
<text x="1495" y="1489" font-family="Helvetica" font-size="10" fill="#334155">choose_6_424_2</text>
<line x1="1420" y1="1572" x2="1568" y2="1494" stroke="#94a3b8" stroke-width="1.2" marker-end="url(#arrow)"/>
<text x="1495" y="1528" font-family="Helvetica" font-size="10" fill="#334155">choose_6_422_2</text>
<line x1="1420" y1="1650" x2="1568" y2="1572" stroke="#94a3b8" stroke-width="1.2" marker-end="url(#arrow)"/>
<text x="1495" y="1606" font-family="Helvetica" font-size="10" fill="#334155">deliver_the_pizza</text>
<line x1="1420" y1="1728" x2="1568" y2="1650" stroke="#94a3b8" stroke-width="1.2" marker-end="url(#arrow)"/>
<text x="1495" y="1684" font-family="Helvetica" font-size="10" fill="#334155">deliver_the_pizza</text>
<line x1="1420" y1="1728" x2="1568" y2="1728" stroke="#94a3b8" stroke-width="1.2" marker-end="url(#arrow)"/>
<text x="1495" y="1723" font-family="Helvetica" font-size="10" fill="#334155">a_60_minutes</text>
<line x1="1420" y1="1806" x2="1568" y2="1806" stroke="#94a3b8" stroke-width="1.2" marker-end="url(#arrow)"/>
<text x="1495" y="1801" font-family="Helvetica" font-size="10" fill="#334155">bake_the_pizza</text>
<line x1="1420" y1="1806" x2="1568" y2="1884" stroke="#94a3b8" stroke-width="1.2" marker-end="url(#arrow)"/>
<text x="1495" y="1840" font-family="Helvetica" font-size="10" fill="#334155">ask_for_the_pizza</text>
<line x1="1420" y1="1884" x2="1568" y2="1962" stroke="#94a3b8" stroke-width="1.2" marker-end="url(#arrow)"/>
<text x="1495" y="1918" font-family="Helvetica" font-size="10" fill="#334155">bake_the_pizza</text>
<line x1="1420" y1="1884" x2="1568" y2="2040" stroke="#94a3b8" stroke-width="1.2" marker-end="url(#arrow)"/>
<text x="1495" y="1957" font-family="Helvetica" font-size="10" fill="#334155">ask_for_the_pizza</text>
<line x1="1420" y1="1962" x2="1568" y2="2118" stroke="#94a3b8" stroke-width="1.2" marker-end="url(#arrow)"/>
<text x="1495" y="2035" font-family="Helvetica" font-size="10" fill="#334155">parallel_gateway_6_652</text>
<line x1="1420" y1="1962" x2="1568" y2="2196" stroke="#94a3b8" stroke-width="1.2" marker-end="url(#arrow)"/>
<text x="1495" y="2074" font-family="Helvetica" font-size="10" fill="#334155">choose_6_424_2</text>
<line x1="1420" y1="1962" x2="1568" y2="2274" stroke="#94a3b8" stroke-width="1.2" marker-end="url(#arrow)"/>
<text x="1495" y="2113" font-family="Helvetica" font-size="10" fill="#334155">choose_6_422_2</text>
<line x1="1420" y1="2040" x2="1568" y2="2352" stroke="#94a3b8" stroke-width="1.2" marker-end="url(#arrow)"/>
<text x="1495" y="2191" font-family="Helvetica" font-size="10" fill="#334155">bake_the_pizza</text>
<line x1="1420" y1="2040" x2="1568" y2="2430" stroke="#94a3b8" stroke-width="1.2" marker-end="url(#arrow)"/>
<text x="1495" y="2230" font-family="Helvetica" font-size="10" fill="#334155">ask_for_the_pizza</text>
<line x1="1420" y1="2118" x2="1568" y2="2508" stroke="#94a3b8" stroke-width="1.2" marker-end="url(#arrow)"/>
<text x="1495" y="2308" font-family="Helvetica" font-size="10" fill="#334155">parallel_gateway_6_652</text>
<line x1="1420" y1="2118" x2="1568" y2="2586" stroke="#94a3b8" stroke-width="1.2" marker-end="url(#arrow)"/>
<text x="1495" y="2347" font-family="Helvetica" font-size="10" fill="#334155">choose_6_424_2</text>
<line x1="1420" y1="2118" x2="1568" y2="2664" stroke="#94a3b8" stroke-width="1.2" marker-end="url(#arrow)"/>
<text x="1495" y="2386" font-family="Helvetica" font-size="10" fill="#334155">choose_6_422_2</text>
<line x1="1420" y1="2196" x2="1568" y2="2742" stroke="#94a3b8" stroke-width="1.2" marker-end="url(#arrow)"/>
<text x="1495" y="2464" font-family="Helvetica" font-size="10" fill="#334155">parallel_gateway_6_652</text>
<line x1="1420" y1="2196" x2="1568" y2="2820" stroke="#94a3b8" stroke-width="1.2" marker-end="url(#arrow)"/>
<text x="1495" y="2503" font-family="Helvetica" font-size="10" fill="#334155">choose_6_424_2</text>
<line x1="1420" y1="2196" x2="1568" y2="2898" stroke="#94a3b8" stroke-width="1.2" marker-end="url(#arrow)"/>
<text x="1495" y="2542" font-family="Helvetica" font-size="10" fill="#334155">choose_6_422_2</text>
<line x1="1420" y1="2274" x2="1568" y2="2976" stroke="#94a3b8" stroke-width="1.2" marker-end="url(#arrow)"/>
<text x="1495" y="2620" font-family="Helvetica" font-size="10" fill="#334155">order_received</text>
<line x1="1420" y1="2274" x2="1568" y2="3054" stroke="#94a3b8" stroke-width="1.2" marker-end="url(#arrow)"/>
<text x="1495" y="2659" font-family="Helvetica" font-size="10" fill="#334155">a_60_minutes</text>
<line x1="1420" y1="2352" x2="1568" y2="3132" stroke="#94a3b8" stroke-width="1.2" marker-end="url(#arrow)"/>
<text x="1495" y="2737" font-family="Helvetica" font-size="10" fill="#334155">order_received</text>
<line x1="1420" y1="2430" x2="1568" y2="3210" stroke="#94a3b8" stroke-width="1.2" marker-end="url(#arrow)"/>
<text x="1495" y="2815" font-family="Helvetica" font-size="10" fill="#334155">deliver_the_pizza</text>
<line x1="1610" y1="90" x2="1758" y2="363" stroke="#94a3b8" stroke-width="1.2" marker-end="url(#arrow)"/>
<text x="1685" y="221" font-family="Helvetica" font-size="10" fill="#334155">a_60_minutes</text>
<line x1="1610" y1="168" x2="1758" y2="441" stroke="#94a3b8" stroke-width="1.2" marker-end="url(#arrow)"/>
<text x="1685" y="299" font-family="Helvetica" font-size="10" fill="#334155">pizza_received</text>
<line x1="1610" y1="246" x2="1758" y2="519" stroke="#94a3b8" stroke-width="1.2" marker-end="url(#arrow)"/>
<text x="1685" y="377" font-family="Helvetica" font-size="10" fill="#334155">a_60_minutes</text>
<line x1="1610" y1="324" x2="1758" y2="597" stroke="#94a3b8" stroke-width="1.2" marker-end="url(#arrow)"/>
<text x="1685" y="455" font-family="Helvetica" font-size="10" fill="#334155">deliver_the_pizza</text>
<line x1="1610" y1="324" x2="1758" y2="675" stroke="#94a3b8" stroke-width="1.2" marker-end="url(#arrow)"/>
<text x="1685" y="494" font-family="Helvetica" font-size="10" fill="#334155">ask_for_the_pizza</text>
<line x1="1610" y1="402" x2="1758" y2="753" stroke="#94a3b8" stroke-width="1.2" marker-end="url(#arrow)"/>
<text x="1685" y="572" font-family="Helvetica" font-size="10" fill="#334155">pizza_received</text>
<line x1="1610" y1="480" x2="1758" y2="831" stroke="#94a3b8" stroke-width="1.2" marker-end="url(#arrow)"/>
<text x="1685" y="650" font-family="Helvetica" font-size="10" fill="#334155">a_60_minutes</text>
<line x1="1610" y1="558" x2="1758" y2="909" stroke="#94a3b8" stroke-width="1.2" marker-end="url(#arrow)"/>
<text x="1685" y="728" font-family="Helvetica" font-size="10" fill="#334155">deliver_the_pizza</text>
<line x1="1610" y1="558" x2="1758" y2="987" stroke="#94a3b8" stroke-width="1.2" marker-end="url(#arrow)"/>
<text x="1685" y="767" font-family="Helvetica" font-size="10" fill="#334155">ask_for_the_pizza</text>
<line x1="1610" y1="636" x2="1758" y2="1065" stroke="#94a3b8" stroke-width="1.2" marker-end="url(#arrow)"/>
<text x="1685" y="845" font-family="Helvetica" font-size="10" fill="#334155">deliver_the_pizza</text>
<line x1="1610" y1="636" x2="1758" y2="1143" stroke="#94a3b8" stroke-width="1.2" marker-end="url(#arrow)"/>
<text x="1685" y="884" font-family="Helvetica" font-size="10" fill="#334155">ask_for_the_pizza</text>
<line x1="1610" y1="714" x2="1758" y2="1221" stroke="#94a3b8" stroke-width="1.2" marker-end="url(#arrow)"/>
<text x="1685" y="962" font-family="Helvetica" font-size="10" fill="#334155">where_is_my_pizza</text>
<line x1="1610" y1="714" x2="1758" y2="1299" stroke="#94a3b8" stroke-width="1.2" marker-end="url(#arrow)"/>
<text x="1685" y="1001" font-family="Helvetica" font-size="10" fill="#334155">bake_the_pizza</text>
<line x1="1610" y1="714" x2="1758" y2="1377" stroke="#94a3b8" stroke-width="1.2" marker-end="url(#arrow)"/>
<text x="1685" y="1040" font-family="Helvetica" font-size="10" fill="#334155">choose_6_424_2</text>
<line x1="1610" y1="714" x2="1758" y2="1455" stroke="#94a3b8" stroke-width="1.2" marker-end="url(#arrow)"/>
<text x="1685" y="1079" font-family="Helvetica" font-size="10" fill="#334155">choose_6_422_2</text>
<line x1="1610" y1="792" x2="1758" y2="1533" stroke="#94a3b8" stroke-width="1.2" marker-end="url(#arrow)"/>
<text x="1685" y="1157" font-family="Helvetica" font-size="10" fill="#334155">pizza_received</text>
<line x1="1610" y1="870" x2="1758" y2="1611" stroke="#94a3b8" stroke-width="1.2" marker-end="url(#arrow)"/>
<text x="1685" y="1235" font-family="Helvetica" font-size="10" fill="#334155">a_60_minutes</text>
<line x1="1610" y1="948" x2="1758" y2="1689" stroke="#94a3b8" stroke-width="1.2" marker-end="url(#arrow)"/>
<text x="1685" y="1313" font-family="Helvetica" font-size="10" fill="#334155">deliver_the_pizza</text>
<line x1="1610" y1="948" x2="1758" y2="1767" stroke="#94a3b8" stroke-width="1.2" marker-end="url(#arrow)"/>
<text x="1685" y="1352" font-family="Helvetica" font-size="10" fill="#334155">ask_for_the_pizza</text>
<line x1="1610" y1="1026" x2="1758" y2="1845" stroke="#94a3b8" stroke-width="1.2" marker-end="url(#arrow)"/>
<text x="1685" y="1430" font-family="Helvetica" font-size="10" fill="#334155">deliver_the_pizza</text>
<line x1="1610" y1="1026" x2="1758" y2="1923" stroke="#94a3b8" stroke-width="1.2" marker-end="url(#arrow)"/>
<text x="1685" y="1469" font-family="Helvetica" font-size="10" fill="#334155">ask_for_the_pizza</text>
<line x1="1610" y1="1104" x2="1758" y2="2001" stroke="#94a3b8" stroke-width="1.2" marker-end="url(#arrow)"/>
<text x="1685" y="1547" font-family="Helvetica" font-size="10" fill="#334155">where_is_my_pizza</text>
<line x1="1610" y1="1104" x2="1758" y2="2079" stroke="#94a3b8" stroke-width="1.2" marker-end="url(#arrow)"/>
<text x="1685" y="1586" font-family="Helvetica" font-size="10" fill="#334155">bake_the_pizza</text>
<line x1="1610" y1="1104" x2="1758" y2="2157" stroke="#94a3b8" stroke-width="1.2" marker-end="url(#arrow)"/>
<text x="1685" y="1625" font-family="Helvetica" font-size="10" fill="#334155">choose_6_424_2</text>
<line x1="1610" y1="1104" x2="1758" y2="2235" stroke="#94a3b8" stroke-width="1.2" marker-end="url(#arrow)"/>
<text x="1685" y="1664" font-family="Helvetica" font-size="10" fill="#334155">choose_6_422_2</text>
<line x1="1610" y1="1182" x2="1758" y2="2313" stroke="#94a3b8" stroke-width="1.2" marker-end="url(#arrow)"/>
<text x="1685" y="1742" font-family="Helvetica" font-size="10" fill="#334155">deliver_the_pizza</text>
<line x1="1610" y1="1182" x2="1758" y2="2391" stroke="#94a3b8" stroke-width="1.2" marker-end="url(#arrow)"/>
<text x="1685" y="1781" font-family="Helvetica" font-size="10" fill="#334155">ask_for_the_pizza</text>
<line x1="1610" y1="1260" x2="1758" y2="2469" stroke="#94a3b8" stroke-width="1.2" marker-end="url(#arrow)"/>
<text x="1685" y="1859" font-family="Helvetica" font-size="10" fill="#334155">where_is_my_pizza</text>
<line x1="1610" y1="1260" x2="1758" y2="2547" stroke="#94a3b8" stroke-width="1.2" marker-end="url(#arrow)"/>
<text x="1685" y="1898" font-family="Helvetica" font-size="10" fill="#334155">bake_the_pizza</text>
<line x1="1610" y1="1260" x2="1758" y2="2625" stroke="#94a3b8" stroke-width="1.2" marker-end="url(#arrow)"/>
<text x="1685" y="1937" font-family="Helvetica" font-size="10" fill="#334155">choose_6_424_2</text>
<line x1="1610" y1="1260" x2="1758" y2="2703" stroke="#94a3b8" stroke-width="1.2" marker-end="url(#arrow)"/>
<text x="1685" y="1976" font-family="Helvetica" font-size="10" fill="#334155">choose_6_422_2</text>
<line x1="1610" y1="1338" x2="1758" y2="2781" stroke="#94a3b8" stroke-width="1.2" marker-end="url(#arrow)"/>
<text x="1685" y="2054" font-family="Helvetica" font-size="10" fill="#334155">where_is_my_pizza</text>
<line x1="1610" y1="1338" x2="1758" y2="2859" stroke="#94a3b8" stroke-width="1.2" marker-end="url(#arrow)"/>
<text x="1685" y="2093" font-family="Helvetica" font-size="10" fill="#334155">bake_the_pizza</text>
<line x1="1610" y1="1338" x2="1758" y2="2937" stroke="#94a3b8" stroke-width="1.2" marker-end="url(#arrow)"/>
<text x="1685" y="2132" font-family="Helvetica" font-size="10" fill="#334155">choose_6_424_2</text>
<circle cx="70" cy="1650" r="22" fill="#dbeafe" stroke="#2563eb" stroke-width="1.5"/>
<text x="70" y="1654" font-family="Helvetica" font-size="12" text-anchor="middle" fill="#0f172a">0</text>
<circle cx="260" cy="1650" r="22" fill="#f8fafc" stroke="#64748b" stroke-width="1.5"/>
<text x="260" y="1654" font-family="Helvetica" font-size="12" text-anchor="middle" fill="#0f172a">1</text>
<circle cx="450" cy="1650" r="22" fill="#f8fafc" stroke="#64748b" stroke-width="1.5"/>
<text x="450" y="1654" font-family="Helvetica" font-size="12" text-anchor="middle" fill="#0f172a">2</text>
<circle cx="640" cy="1650" r="22" fill="#f8fafc" stroke="#64748b" stroke-width="1.5"/>
<text x="640" y="1654" font-family="Helvetica" font-size="12" text-anchor="middle" fill="#0f172a">3</text>
<circle cx="830" cy="1572" r="22" fill="#f8fafc" stroke="#64748b" stroke-width="1.5"/>
<text x="830" y="1576" font-family="Helvetica" font-size="12" text-anchor="middle" fill="#0f172a">4</text>
<circle cx="830" cy="1650" r="22" fill="#f8fafc" stroke="#64748b" stroke-width="1.5"/>
<text x="830" y="1654" font-family="Helvetica" font-size="12" text-anchor="middle" fill="#0f172a">5</text>
<circle cx="830" cy="1728" r="22" fill="#f8fafc" stroke="#64748b" stroke-width="1.5"/>
<text x="830" y="1732" font-family="Helvetica" font-size="12" text-anchor="middle" fill="#0f172a">6</text>
<circle cx="1020" cy="1455" r="22" fill="#f8fafc" stroke="#64748b" stroke-width="1.5"/>
<text x="1020" y="1459" font-family="Helvetica" font-size="12" text-anchor="middle" fill="#0f172a">7</text>
<circle cx="1020" cy="1533" r="22" fill="#f8fafc" stroke="#64748b" stroke-width="1.5"/>
<text x="1020" y="1537" font-family="Helvetica" font-size="12" text-anchor="middle" fill="#0f172a">8</text>
<circle cx="1020" cy="1611" r="22" fill="#f8fafc" stroke="#64748b" stroke-width="1.5"/>
<text x="1020" y="1615" font-family="Helvetica" font-size="12" text-anchor="middle" fill="#0f172a">9</text>
<circle cx="1020" cy="1689" r="22" fill="#f8fafc" stroke="#64748b" stroke-width="1.5"/>
<text x="1020" y="1693" font-family="Helvetica" font-size="12" text-anchor="middle" fill="#0f172a">10</text>
<circle cx="1020" cy="1767" r="22" fill="#f8fafc" stroke="#64748b" stroke-width="1.5"/>
<text x="1020" y="1771" font-family="Helvetica" font-size="12" text-anchor="middle" fill="#0f172a">11</text>
<circle cx="1020" cy="1845" r="22" fill="#f8fafc" stroke="#64748b" stroke-width="1.5"/>
<text x="1020" y="1849" font-family="Helvetica" font-size="12" text-anchor="middle" fill="#0f172a">12</text>
<circle cx="1210" cy="1260" r="22" fill="#f8fafc" stroke="#64748b" stroke-width="1.5"/>
<text x="1210" y="1264" font-family="Helvetica" font-size="12" text-anchor="middle" fill="#0f172a">13</text>
<circle cx="1210" cy="1338" r="22" fill="#f8fafc" stroke="#64748b" stroke-width="1.5"/>
<text x="1210" y="1342" font-family="Helvetica" font-size="12" text-anchor="middle" fill="#0f172a">14</text>
<circle cx="1210" cy="1416" r="22" fill="#f8fafc" stroke="#64748b" stroke-width="1.5"/>
<text x="1210" y="1420" font-family="Helvetica" font-size="12" text-anchor="middle" fill="#0f172a">15</text>
<circle cx="1210" cy="1494" r="22" fill="#f8fafc" stroke="#64748b" stroke-width="1.5"/>
<text x="1210" y="1498" font-family="Helvetica" font-size="12" text-anchor="middle" fill="#0f172a">16</text>
<circle cx="1210" cy="1572" r="22" fill="#f8fafc" stroke="#64748b" stroke-width="1.5"/>
<text x="1210" y="1576" font-family="Helvetica" font-size="12" text-anchor="middle" fill="#0f172a">17</text>
<circle cx="1210" cy="1650" r="22" fill="#f8fafc" stroke="#64748b" stroke-width="1.5"/>
<text x="1210" y="1654" font-family="Helvetica" font-size="12" text-anchor="middle" fill="#0f172a">18</text>
<circle cx="1210" cy="1728" r="22" fill="#f8fafc" stroke="#64748b" stroke-width="1.5"/>
<text x="1210" y="1732" font-family="Helvetica" font-size="12" text-anchor="middle" fill="#0f172a">19</text>
<circle cx="1210" cy="1806" r="22" fill="#f8fafc" stroke="#64748b" stroke-width="1.5"/>
<text x="1210" y="1810" font-family="Helvetica" font-size="12" text-anchor="middle" fill="#0f172a">20</text>
<circle cx="1210" cy="1884" r="22" fill="#f8fafc" stroke="#64748b" stroke-width="1.5"/>
<text x="1210" y="1888" font-family="Helvetica" font-size="12" text-anchor="middle" fill="#0f172a">21</text>
<circle cx="1210" cy="1962" r="22" fill="#f8fafc" stroke="#64748b" stroke-width="1.5"/>
<text x="1210" y="1966" font-family="Helvetica" font-size="12" text-anchor="middle" fill="#0f172a">22</text>
<circle cx="1210" cy="2040" r="22" fill="#f8fafc" stroke="#64748b" stroke-width="1.5"/>
<text x="1210" y="2044" font-family="Helvetica" font-size="12" text-anchor="middle" fill="#0f172a">23</text>
<circle cx="1400" cy="870" r="22" fill="#f8fafc" stroke="#64748b" stroke-width="1.5"/>
<text x="1400" y="874" font-family="Helvetica" font-size="12" text-anchor="middle" fill="#0f172a">24</text>
<circle cx="1400" cy="948" r="22" fill="#f8fafc" stroke="#64748b" stroke-width="1.5"/>
<text x="1400" y="952" font-family="Helvetica" font-size="12" text-anchor="middle" fill="#0f172a">25</text>
<circle cx="1400" cy="1026" r="22" fill="#f8fafc" stroke="#64748b" stroke-width="1.5"/>
<text x="1400" y="1030" font-family="Helvetica" font-size="12" text-anchor="middle" fill="#0f172a">26</text>
<circle cx="1400" cy="1104" r="22" fill="#f8fafc" stroke="#64748b" stroke-width="1.5"/>
<text x="1400" y="1108" font-family="Helvetica" font-size="12" text-anchor="middle" fill="#0f172a">27</text>
<circle cx="1400" cy="1182" r="22" fill="#f8fafc" stroke="#64748b" stroke-width="1.5"/>
<text x="1400" y="1186" font-family="Helvetica" font-size="12" text-anchor="middle" fill="#0f172a">28</text>
<circle cx="1400" cy="1260" r="22" fill="#f8fafc" stroke="#64748b" stroke-width="1.5"/>
<text x="1400" y="1264" font-family="Helvetica" font-size="12" text-anchor="middle" fill="#0f172a">29</text>
<circle cx="1400" cy="1338" r="22" fill="#f8fafc" stroke="#64748b" stroke-width="1.5"/>
<text x="1400" y="1342" font-family="Helvetica" font-size="12" text-anchor="middle" fill="#0f172a">30</text>
<circle cx="1400" cy="1416" r="22" fill="#f8fafc" stroke="#64748b" stroke-width="1.5"/>
<text x="1400" y="1420" font-family="Helvetica" font-size="12" text-anchor="middle" fill="#0f172a">31</text>
<circle cx="1400" cy="1494" r="22" fill="#f8fafc" stroke="#64748b" stroke-width="1.5"/>
<text x="1400" y="1498" font-family="Helvetica" font-size="12" text-anchor="middle" fill="#0f172a">32</text>
<circle cx="1400" cy="1572" r="22" fill="#f8fafc" stroke="#64748b" stroke-width="1.5"/>
<text x="1400" y="1576" font-family="Helvetica" font-size="12" text-anchor="middle" fill="#0f172a">33</text>
<circle cx="1400" cy="1650" r="22" fill="#f8fafc" stroke="#64748b" stroke-width="1.5"/>
<text x="1400" y="1654" font-family="Helvetica" font-size="12" text-anchor="middle" fill="#0f172a">34</text>
<circle cx="1400" cy="1728" r="22" fill="#f8fafc" stroke="#64748b" stroke-width="1.5"/>
<text x="1400" y="1732" font-family="Helvetica" font-size="12" text-anchor="middle" fill="#0f172a">35</text>
<circle cx="1400" cy="1806" r="22" fill="#f8fafc" stroke="#64748b" stroke-width="1.5"/>
<text x="1400" y="1810" font-family="Helvetica" font-size="12" text-anchor="middle" fill="#0f172a">36</text>
<circle cx="1400" cy="1884" r="22" fill="#f8fafc" stroke="#64748b" stroke-width="1.5"/>
<text x="1400" y="1888" font-family="Helvetica" font-size="12" text-anchor="middle" fill="#0f172a">37</text>
<circle cx="1400" cy="1962" r="22" fill="#f8fafc" stroke="#64748b" stroke-width="1.5"/>
<text x="1400" y="1966" font-family="Helvetica" font-size="12" text-anchor="middle" fill="#0f172a">38</text>
<circle cx="1400" cy="2040" r="22" fill="#f8fafc" stroke="#64748b" stroke-width="1.5"/>
<text x="1400" y="2044" font-family="Helvetica" font-size="12" text-anchor="middle" fill="#0f172a">39</text>
<circle cx="1400" cy="2118" r="22" fill="#f8fafc" stroke="#64748b" stroke-width="1.5"/>
<text x="1400" y="2122" font-family="Helvetica" font-size="12" text-anchor="middle" fill="#0f172a">40</text>
<circle cx="1400" cy="2196" r="22" fill="#f8fafc" stroke="#64748b" stroke-width="1.5"/>
<text x="1400" y="2200" font-family="Helvetica" font-size="12" text-anchor="middle" fill="#0f172a">41</text>
<circle cx="1400" cy="2274" r="22" fill="#f8fafc" stroke="#64748b" stroke-width="1.5"/>
<text x="1400" y="2278" font-family="Helvetica" font-size="12" text-anchor="middle" fill="#0f172a">42</text>
<circle cx="1400" cy="2352" r="22" fill="#f8fafc" stroke="#64748b" stroke-width="1.5"/>
<text x="1400" y="2356" font-family="Helvetica" font-size="12" text-anchor="middle" fill="#0f172a">43</text>
<circle cx="1400" cy="2430" r="22" fill="#f8fafc" stroke="#64748b" stroke-width="1.5"/>
<text x="1400" y="2434" font-family="Helvetica" font-size="12" text-anchor="middle" fill="#0f172a">44</text>
<circle cx="1590" cy="90" r="22" fill="#f8fafc" stroke="#64748b" stroke-width="1.5"/>
<text x="1590" y="94" font-family="Helvetica" font-size="12" text-anchor="middle" fill="#0f172a">45</text>
<circle cx="1590" cy="168" r="22" fill="#f8fafc" stroke="#64748b" stroke-width="1.5"/>
<text x="1590" y="172" font-family="Helvetica" font-size="12" text-anchor="middle" fill="#0f172a">46</text>
<circle cx="1590" cy="246" r="22" fill="#f8fafc" stroke="#64748b" stroke-width="1.5"/>
<text x="1590" y="250" font-family="Helvetica" font-size="12" text-anchor="middle" fill="#0f172a">47</text>
<circle cx="1590" cy="324" r="22" fill="#f8fafc" stroke="#64748b" stroke-width="1.5"/>
<text x="1590" y="328" font-family="Helvetica" font-size="12" text-anchor="middle" fill="#0f172a">48</text>
<circle cx="1590" cy="402" r="22" fill="#f8fafc" stroke="#64748b" stroke-width="1.5"/>
<text x="1590" y="406" font-family="Helvetica" font-size="12" text-anchor="middle" fill="#0f172a">49</text>
<circle cx="1590" cy="480" r="22" fill="#f8fafc" stroke="#64748b" stroke-width="1.5"/>
<text x="1590" y="484" font-family="Helvetica" font-size="12" text-anchor="middle" fill="#0f172a">50</text>
<circle cx="1590" cy="558" r="22" fill="#f8fafc" stroke="#64748b" stroke-width="1.5"/>
<text x="1590" y="562" font-family="Helvetica" font-size="12" text-anchor="middle" fill="#0f172a">51</text>
<circle cx="1590" cy="636" r="22" fill="#f8fafc" stroke="#64748b" stroke-width="1.5"/>
<text x="1590" y="640" font-family="Helvetica" font-size="12" text-anchor="middle" fill="#0f172a">52</text>
<circle cx="1590" cy="714" r="22" fill="#f8fafc" stroke="#64748b" stroke-width="1.5"/>
<text x="1590" y="718" font-family="Helvetica" font-size="12" text-anchor="middle" fill="#0f172a">53</text>
<circle cx="1590" cy="792" r="22" fill="#f8fafc" stroke="#64748b" stroke-width="1.5"/>
<text x="1590" y="796" font-family="Helvetica" font-size="12" text-anchor="middle" fill="#0f172a">54</text>
<circle cx="1590" cy="870" r="22" fill="#f8fafc" stroke="#64748b" stroke-width="1.5"/>
<text x="1590" y="874" font-family="Helvetica" font-size="12" text-anchor="middle" fill="#0f172a">55</text>
<circle cx="1590" cy="948" r="22" fill="#f8fafc" stroke="#64748b" stroke-width="1.5"/>
<text x="1590" y="952" font-family="Helvetica" font-size="12" text-anchor="middle" fill="#0f172a">56</text>
<circle cx="1590" cy="1026" r="22" fill="#f8fafc" stroke="#64748b" stroke-width="1.5"/>
<text x="1590" y="1030" font-family="Helvetica" font-size="12" text-anchor="middle" fill="#0f172a">57</text>
<circle cx="1590" cy="1104" r="22" fill="#f8fafc" stroke="#64748b" stroke-width="1.5"/>
<text x="1590" y="1108" font-family="Helvetica" font-size="12" text-anchor="middle" fill="#0f172a">58</text>
<circle cx="1590" cy="1182" r="22" fill="#f8fafc" stroke="#64748b" stroke-width="1.5"/>
<text x="1590" y="1186" font-family="Helvetica" font-size="12" text-anchor="middle" fill="#0f172a">59</text>
<circle cx="1590" cy="1260" r="22" fill="#f8fafc" stroke="#64748b" stroke-width="1.5"/>
<text x="1590" y="1264" font-family="Helvetica" font-size="12" text-anchor="middle" fill="#0f172a">60</text>
<circle cx="1590" cy="1338" r="22" fill="#f8fafc" stroke="#64748b" stroke-width="1.5"/>
<text x="1590" y="1342" font-family="Helvetica" font-size="12" text-anchor="middle" fill="#0f172a">61</text>
<circle cx="1590" cy="1416" r="22" fill="#f8fafc" stroke="#64748b" stroke-width="1.5"/>
<text x="1590" y="1420" font-family="Helvetica" font-size="12" text-anchor="middle" fill="#0f172a">62</text>
<circle cx="1590" cy="1494" r="22" fill="#f8fafc" stroke="#64748b" stroke-width="1.5"/>
<text x="1590" y="1498" font-family="Helvetica" font-size="12" text-anchor="middle" fill="#0f172a">63</text>
<circle cx="1590" cy="1572" r="22" fill="#f8fafc" stroke="#64748b" stroke-width="1.5"/>
<text x="1590" y="1576" font-family="Helvetica" font-size="12" text-anchor="middle" fill="#0f172a">64</text>
<circle cx="1590" cy="1650" r="22" fill="#f8fafc" stroke="#64748b" stroke-width="1.5"/>
<text x="1590" y="1654" font-family="Helvetica" font-size="12" text-anchor="middle" fill="#0f172a">65</text>
<circle cx="1590" cy="1728" r="22" fill="#f8fafc" stroke="#64748b" stroke-width="1.5"/>
<text x="1590" y="1732" font-family="Helvetica" font-size="12" text-anchor="middle" fill="#0f172a">66</text>
<circle cx="1590" cy="1806" r="22" fill="#f8fafc" stroke="#64748b" stroke-width="1.5"/>
<text x="1590" y="1810" font-family="Helvetica" font-size="12" text-anchor="middle" fill="#0f172a">67</text>
<circle cx="1590" cy="1884" r="22" fill="#f8fafc" stroke="#64748b" stroke-width="1.5"/>
<text x="1590" y="1888" font-family="Helvetica" font-size="12" text-anchor="middle" fill="#0f172a">68</text>
<circle cx="1590" cy="1962" r="22" fill="#f8fafc" stroke="#64748b" stroke-width="1.5"/>
<text x="1590" y="1966" font-family="Helvetica" font-size="12" text-anchor="middle" fill="#0f172a">69</text>
<circle cx="1590" cy="2040" r="22" fill="#f8fafc" stroke="#64748b" stroke-width="1.5"/>
<text x="1590" y="2044" font-family="Helvetica" font-size="12" text-anchor="middle" fill="#0f172a">70</text>
<circle cx="1590" cy="2118" r="22" fill="#f8fafc" stroke="#64748b" stroke-width="1.5"/>
<text x="1590" y="2122" font-family="Helvetica" font-size="12" text-anchor="middle" fill="#0f172a">71</text>
<circle cx="1590" cy="2196" r="22" fill="#f8fafc" stroke="#64748b" stroke-width="1.5"/>
<text x="1590" y="2200" font-family="Helvetica" font-size="12" text-anchor="middle" fill="#0f172a">72</text>
<circle cx="1590" cy="2274" r="22" fill="#f8fafc" stroke="#64748b" stroke-width="1.5"/>
<text x="1590" y="2278" font-family="Helvetica" font-size="12" text-anchor="middle" fill="#0f172a">73</text>
<circle cx="1590" cy="2352" r="22" fill="#f8fafc" stroke="#64748b" stroke-width="1.5"/>
<text x="1590" y="2356" font-family="Helvetica" font-size="12" text-anchor="middle" fill="#0f172a">74</text>
<circle cx="1590" cy="2430" r="22" fill="#f8fafc" stroke="#64748b" stroke-width="1.5"/>
<text x="1590" y="2434" font-family="Helvetica" font-size="12" text-anchor="middle" fill="#0f172a">75</text>
<circle cx="1590" cy="2508" r="22" fill="#f8fafc" stroke="#64748b" stroke-width="1.5"/>
<text x="1590" y="2512" font-family="Helvetica" font-size="12" text-anchor="middle" fill="#0f172a">76</text>
<circle cx="1590" cy="2586" r="22" fill="#f8fafc" stroke="#64748b" stroke-width="1.5"/>
<text x="1590" y="2590" font-family="Helvetica" font-size="12" text-anchor="middle" fill="#0f172a">77</text>
<circle cx="1590" cy="2664" r="22" fill="#f8fafc" stroke="#64748b" stroke-width="1.5"/>
<text x="1590" y="2668" font-family="Helvetica" font-size="12" text-anchor="middle" fill="#0f172a">78</text>
<circle cx="1590" cy="2742" r="22" fill="#f8fafc" stroke="#64748b" stroke-width="1.5"/>
<text x="1590" y="2746" font-family="Helvetica" font-size="12" text-anchor="middle" fill="#0f172a">79</text>
<circle cx="1590" cy="2820" r="22" fill="#f8fafc" stroke="#64748b" stroke-width="1.5"/>
<text x="1590" y="2824" font-family="Helvetica" font-size="12" text-anchor="middle" fill="#0f172a">80</text>
<circle cx="1590" cy="2898" r="22" fill="#f8fafc" stroke="#64748b" stroke-width="1.5"/>
<text x="1590" y="2902" font-family="Helvetica" font-size="12" text-anchor="middle" fill="#0f172a">81</text>
<circle cx="1590" cy="2976" r="22" fill="#f8fafc" stroke="#64748b" stroke-width="1.5"/>
<text x="1590" y="2980" font-family="Helvetica" font-size="12" text-anchor="middle" fill="#0f172a">82</text>
<circle cx="1590" cy="3054" r="22" fill="#f8fafc" stroke="#64748b" stroke-width="1.5"/>
<text x="1590" y="3058" font-family="Helvetica" font-size="12" text-anchor="middle" fill="#0f172a">83</text>
<circle cx="1590" cy="3132" r="22" fill="#f8fafc" stroke="#64748b" stroke-width="1.5"/>
<text x="1590" y="3136" font-family="Helvetica" font-size="12" text-anchor="middle" fill="#0f172a">84</text>
<circle cx="1590" cy="3210" r="22" fill="#f8fafc" stroke="#64748b" stroke-width="1.5"/>
<text x="1590" y="3214" font-family="Helvetica" font-size="12" text-anchor="middle" fill="#0f172a">85</text>
<circle cx="1780" cy="363" r="22" fill="#f8fafc" stroke="#64748b" stroke-width="1.5"/>
<text x="1780" y="367" font-family="Helvetica" font-size="12" text-anchor="middle" fill="#0f172a">86</text>
<circle cx="1780" cy="441" r="22" fill="#f8fafc" stroke="#64748b" stroke-width="1.5"/>
<text x="1780" y="445" font-family="Helvetica" font-size="12" text-anchor="middle" fill="#0f172a">87</text>
<circle cx="1780" cy="519" r="22" fill="#f8fafc" stroke="#64748b" stroke-width="1.5"/>
<text x="1780" y="523" font-family="Helvetica" font-size="12" text-anchor="middle" fill="#0f172a">88</text>
<circle cx="1780" cy="597" r="22" fill="#f8fafc" stroke="#64748b" stroke-width="1.5"/>
<text x="1780" y="601" font-family="Helvetica" font-size="12" text-anchor="middle" fill="#0f172a">89</text>
<circle cx="1780" cy="675" r="22" fill="#f8fafc" stroke="#64748b" stroke-width="1.5"/>
<text x="1780" y="679" font-family="Helvetica" font-size="12" text-anchor="middle" fill="#0f172a">90</text>
<circle cx="1780" cy="753" r="22" fill="#f8fafc" stroke="#64748b" stroke-width="1.5"/>
<text x="1780" y="757" font-family="Helvetica" font-size="12" text-anchor="middle" fill="#0f172a">91</text>
<circle cx="1780" cy="831" r="22" fill="#f8fafc" stroke="#64748b" stroke-width="1.5"/>
<text x="1780" y="835" font-family="Helvetica" font-size="12" text-anchor="middle" fill="#0f172a">92</text>
<circle cx="1780" cy="909" r="22" fill="#f8fafc" stroke="#64748b" stroke-width="1.5"/>
<text x="1780" y="913" font-family="Helvetica" font-size="12" text-anchor="middle" fill="#0f172a">93</text>
<circle cx="1780" cy="987" r="22" fill="#f8fafc" stroke="#64748b" stroke-width="1.5"/>
<text x="1780" y="991" font-family="Helvetica" font-size="12" text-anchor="middle" fill="#0f172a">94</text>
<circle cx="1780" cy="1065" r="22" fill="#f8fafc" stroke="#64748b" stroke-width="1.5"/>
<text x="1780" y="1069" font-family="Helvetica" font-size="12" text-anchor="middle" fill="#0f172a">95</text>
<circle cx="1780" cy="1143" r="22" fill="#f8fafc" stroke="#64748b" stroke-width="1.5"/>
<text x="1780" y="1147" font-family="Helvetica" font-size="12" text-anchor="middle" fill="#0f172a">96</text>
<circle cx="1780" cy="1221" r="22" fill="#f8fafc" stroke="#64748b" stroke-width="1.5"/>
<text x="1780" y="1225" font-family="Helvetica" font-size="12" text-anchor="middle" fill="#0f172a">97</text>
<circle cx="1780" cy="1299" r="22" fill="#f8fafc" stroke="#64748b" stroke-width="1.5"/>
<text x="1780" y="1303" font-family="Helvetica" font-size="12" text-anchor="middle" fill="#0f172a">98</text>
<circle cx="1780" cy="1377" r="22" fill="#f8fafc" stroke="#64748b" stroke-width="1.5"/>
<text x="1780" y="1381" font-family="Helvetica" font-size="12" text-anchor="middle" fill="#0f172a">99</text>
<circle cx="1780" cy="1455" r="22" fill="#f8fafc" stroke="#64748b" stroke-width="1.5"/>
<text x="1780" y="1459" font-family="Helvetica" font-size="12" text-anchor="middle" fill="#0f172a">100</text>
<circle cx="1780" cy="1533" r="22" fill="#f8fafc" stroke="#64748b" stroke-width="1.5"/>
<text x="1780" y="1537" font-family="Helvetica" font-size="12" text-anchor="middle" fill="#0f172a">101</text>
<circle cx="1780" cy="1611" r="22" fill="#f8fafc" stroke="#64748b" stroke-width="1.5"/>
<text x="1780" y="1615" font-family="Helvetica" font-size="12" text-anchor="middle" fill="#0f172a">102</text>
<circle cx="1780" cy="1689" r="22" fill="#f8fafc" stroke="#64748b" stroke-width="1.5"/>
<text x="1780" y="1693" font-family="Helvetica" font-size="12" text-anchor="middle" fill="#0f172a">103</text>
<circle cx="1780" cy="1767" r="22" fill="#f8fafc" stroke="#64748b" stroke-width="1.5"/>
<text x="1780" y="1771" font-family="Helvetica" font-size="12" text-anchor="middle" fill="#0f172a">104</text>
<circle cx="1780" cy="1845" r="22" fill="#f8fafc" stroke="#64748b" stroke-width="1.5"/>
<text x="1780" y="1849" font-family="Helvetica" font-size="12" text-anchor="middle" fill="#0f172a">105</text>
<circle cx="1780" cy="1923" r="22" fill="#f8fafc" stroke="#64748b" stroke-width="1.5"/>
<text x="1780" y="1927" font-family="Helvetica" font-size="12" text-anchor="middle" fill="#0f172a">106</text>
<circle cx="1780" cy="2001" r="22" fill="#f8fafc" stroke="#64748b" stroke-width="1.5"/>
<text x="1780" y="2005" font-family="Helvetica" font-size="12" text-anchor="middle" fill="#0f172a">107</text>
<circle cx="1780" cy="2079" r="22" fill="#f8fafc" stroke="#64748b" stroke-width="1.5"/>
<text x="1780" y="2083" font-family="Helvetica" font-size="12" text-anchor="middle" fill="#0f172a">108</text>
<circle cx="1780" cy="2157" r="22" fill="#f8fafc" stroke="#64748b" stroke-width="1.5"/>
<text x="1780" y="2161" font-family="Helvetica" font-size="12" text-anchor="middle" fill="#0f172a">109</text>
<circle cx="1780" cy="2235" r="22" fill="#f8fafc" stroke="#64748b" stroke-width="1.5"/>
<text x="1780" y="2239" font-family="Helvetica" font-size="12" text-anchor="middle" fill="#0f172a">110</text>
<circle cx="1780" cy="2313" r="22" fill="#f8fafc" stroke="#64748b" stroke-width="1.5"/>
<text x="1780" y="2317" font-family="Helvetica" font-size="12" text-anchor="middle" fill="#0f172a">111</text>
<circle cx="1780" cy="2391" r="22" fill="#f8fafc" stroke="#64748b" stroke-width="1.5"/>
<text x="1780" y="2395" font-family="Helvetica" font-size="12" text-anchor="middle" fill="#0f172a">112</text>
<circle cx="1780" cy="2469" r="22" fill="#f8fafc" stroke="#64748b" stroke-width="1.5"/>
<text x="1780" y="2473" font-family="Helvetica" font-size="12" text-anchor="middle" fill="#0f172a">113</text>
<circle cx="1780" cy="2547" r="22" fill="#f8fafc" stroke="#64748b" stroke-width="1.5"/>
<text x="1780" y="2551" font-family="Helvetica" font-size="12" text-anchor="middle" fill="#0f172a">114</text>
<circle cx="1780" cy="2625" r="22" fill="#f8fafc" stroke="#64748b" stroke-width="1.5"/>
<text x="1780" y="2629" font-family="Helvetica" font-size="12" text-anchor="middle" fill="#0f172a">115</text>
<circle cx="1780" cy="2703" r="22" fill="#f8fafc" stroke="#64748b" stroke-width="1.5"/>
<text x="1780" y="2707" font-family="Helvetica" font-size="12" text-anchor="middle" fill="#0f172a">116</text>
<circle cx="1780" cy="2781" r="22" fill="#f8fafc" stroke="#64748b" stroke-width="1.5"/>
<text x="1780" y="2785" font-family="Helvetica" font-size="12" text-anchor="middle" fill="#0f172a">117</text>
<circle cx="1780" cy="2859" r="22" fill="#f8fafc" stroke="#64748b" stroke-width="1.5"/>
<text x="1780" y="2863" font-family="Helvetica" font-size="12" text-anchor="middle" fill="#0f172a">118</text>
<circle cx="1780" cy="2937" r="22" fill="#f8fafc" stroke="#64748b" stroke-width="1.5"/>
<text x="1780" y="2941" font-family="Helvetica" font-size="12" text-anchor="middle" fill="#0f172a">119</text>
<text x="28" y="3354" font-family="Helvetica" font-size="12" fill="#475569">119 shown transitions. Use the DOT/AUT files for machine-level inspection.</text>
</svg>
