<?xml version="1.0" encoding="UTF-8"?>
<svg xmlns="http://www.w3.org/2000/svg" width="900" height="220" viewBox="0 0 900 220">
  <defs>
    <marker id="arrow" markerWidth="10" markerHeight="7" refX="9" refY="3.5" orient="auto">
      <polygon points="0 0, 10 3.5, 0 7" fill="#1f2937" />
    </marker>
  </defs>
  <rect width="100%" height="100%" fill="#ffffff" />

  <circle cx="80" cy="110" r="28" fill="#fef3c7" stroke="#92400e" stroke-width="2" />
  <text x="80" y="105" text-anchor="middle" font-family="Arial" font-size="11" fill="#92400e">s0</text>
  <text x="80" y="122" text-anchor="middle" font-family="Arial" font-size="9" fill="#92400e">m_init</text>

  <circle cx="240" cy="110" r="28" fill="#fef3c7" stroke="#92400e" stroke-width="2" />
  <text x="240" y="105" text-anchor="middle" font-family="Arial" font-size="11" fill="#92400e">s1</text>

  <circle cx="400" cy="110" r="28" fill="#fef3c7" stroke="#92400e" stroke-width="2" />
  <text x="400" y="105" text-anchor="middle" font-family="Arial" font-size="11" fill="#92400e">s2</text>

  <circle cx="560" cy="110" r="28" fill="#fef3c7" stroke="#92400e" stroke-width="2" />
  <text x="560" y="105" text-anchor="middle" font-family="Arial" font-size="11" fill="#92400e">s3</text>

  <circle cx="720" cy="110" r="28" fill="#fef3c7" stroke="#92400e" stroke-width="2" />
  <text x="720" y="105" text-anchor="middle" font-family="Arial" font-size="11" fill="#92400e">s4</text>

  <line x1="108" y1="110" x2="212" y2="110" stroke="#1f2937" stroke-width="2" marker-end="url(#arrow)" />
  <text x="160" y="95" text-anchor="middle" font-family="Arial" font-size="10" fill="#1f2937">fire_t_1</text>

  <line x1="268" y1="110" x2="372" y2="110" stroke="#1f2937" stroke-width="2" marker-end="url(#arrow)" />
  <text x="320" y="95" text-anchor="middle" font-family="Arial" font-size="10" fill="#1f2937">fire_t_2</text>

  <line x1="428" y1="110" x2="532" y2="110" stroke="#1f2937" stroke-width="2" marker-end="url(#arrow)" />
  <text x="480" y="95" text-anchor="middle" font-family="Arial" font-size="10" fill="#1f2937">fire_t_3</text>

  <line x1="588" y1="110" x2="692" y2="110" stroke="#1f2937" stroke-width="2" marker-end="url(#arrow)" />
  <text x="640" y="95" text-anchor="middle" font-family="Arial" font-size="10" fill="#1f2937">fire_t_0</text>

  <text x="450" y="200" text-anchor="middle" font-family="Arial" font-size="12" fill="#374151">Pizza LTS (简化视图)</text>
</svg>
